<svg width="64" height="64" viewBox="0 0 64 64" fill="none" xmlns="http://www.w3.org/2000/svg">
<rect width="64" height="64" rx="32" fill="#ECF4FC"/>
<path d="M19.0089 42.5001C18.7328 42.9784 18.8968 43.59 19.3751 43.8661C19.8534 44.1422 20.465 43.9783 20.7411 43.4999L19.0089 42.5001ZM43.2589 43.4999C43.535 43.9783 44.1466 44.1422 44.6249 43.8661C45.1032 43.59 45.2672 42.9784 44.9911 42.5001L43.2589 43.4999ZM39 28C39 31.866 35.866 35 32 35V37C36.9706 37 41 32.9706 41 28H39ZM32 35C28.134 35 25 31.866 25 28H23C23 32.9706 27.0294 37 32 37V35ZM25 28C25 24.134 28.134 21 32 21V19C27.0294 19 23 23.0294 23 28H25ZM32 21C35.866 21 39 24.134 39 28H41C41 23.0294 36.9706 19 32 19V21ZM20.7411 43.4999C21.882 41.5234 23.5231 39.8821 25.4995 38.7409L24.4994 37.0089C22.219 38.3256 20.3254 40.2195 19.0089 42.5001L20.7411 43.4999ZM25.4995 38.7409C27.4759 37.5997 29.7178 36.9989 32 36.9989V34.9989C29.3667 34.9989 26.7798 35.6921 24.4994 37.0089L25.4995 38.7409ZM32 36.9989C34.2822 36.9989 36.5241 37.5997 38.5005 38.7409L39.5006 37.0089C37.2202 35.6921 34.6333 34.9989 32 34.9989V36.9989ZM38.5005 38.7409C40.4769 39.8821 42.118 41.5234 43.2589 43.4999L44.9911 42.5001C43.6746 40.2195 41.781 38.3256 39.5006 37.0089L38.5005 38.7409Z" fill="#064280"/>
</svg>
