<svg xmlns="http://www.w3.org/2000/svg" width="250" height="56" viewBox="0 0 250 56" fill="none" class="h-full w-full"><g clip-path="url(#clip0_2505_27892)"><mask id="mask0_2505_27892" maskUnits="userSpaceOnUse" x="0" y="0" width="250" height="56"><path d="M250 0H0V55.8608H250V0Z" fill="white"></path></mask><g mask="url(#mask0_2505_27892)"><path d="M224.249 35.1504C224.516 35.4185 224.886 35.5722 225.267 35.5722H227.163V33.9829H223.09L224.249 35.1504Z" fill="#4F9D6F"></path><path d="M224.272 31.2959C223.818 31.2959 223.393 31.4747 223.073 31.7959L220.974 33.9046C220.924 33.9549 220.855 33.9856 220.782 33.9856H217.232V35.5748H220.123C220.577 35.5748 221.002 35.3989 221.322 35.0777L223.421 32.9689C223.471 32.9187 223.54 32.8879 223.613 32.8879H229.896V31.2987H224.272V31.2959Z" fill="#4F9D6F"></path><path d="M220.143 31.7176C219.876 31.4495 219.506 31.2959 219.125 31.2959H214.496V32.8851H221.302L220.143 31.7176Z" fill="#4F9D6F"></path><path d="M219.562 25.2015L220.844 25.0563L219.637 26.2713C219.587 26.3215 219.517 26.3523 219.445 26.3523H217.488V27.9415H218.789C219.242 27.9415 219.668 27.7655 219.987 27.4443L221.603 25.8216L221.458 27.1092C221.425 27.408 221.408 27.7097 221.408 28.0085V30.8742H222.99V28.0085C222.99 27.7097 222.973 27.408 222.94 27.1092L222.795 25.8216L224.411 27.4443C224.728 27.7628 225.164 27.9443 225.609 27.9443H226.91V26.3551H224.953C224.88 26.3551 224.811 26.3271 224.761 26.2741L223.552 25.0591L224.833 25.2043C225.128 25.2378 225.428 25.2546 225.728 25.2546H228.067V23.6654H225.728C225.431 23.6654 225.128 23.6821 224.833 23.7156L223.552 23.8609L224.761 22.6459C224.811 22.5956 224.88 22.5677 224.953 22.5677H226.913V20.9785H225.612C225.167 20.9785 224.728 21.16 224.413 21.4784L222.798 23.1012L222.943 21.8136C222.976 21.5147 222.993 21.2131 222.993 20.9142V19.3306H221.411V20.9142C221.411 21.2159 221.427 21.5175 221.461 21.8136L221.605 23.1012L219.99 21.4784C219.676 21.16 219.237 20.9785 218.792 20.9785H217.491V22.5677H219.448C219.52 22.5677 219.59 22.5956 219.64 22.6487L220.849 23.8637L219.567 23.7184C219.273 23.6849 218.97 23.6682 218.672 23.6682H216.334V25.2574H218.672C218.97 25.2574 219.273 25.2406 219.567 25.2071" fill="#4F9D6F"></path><path d="M208.296 13.9651V27.9331L222.198 13.9651H208.296Z" fill="#86519B"></path><path d="M236.099 13.9651V27.9331L222.195 13.9651H236.099Z" fill="#86519B"></path><path d="M208.296 41.8956V27.9304L222.198 41.8956H208.296Z" fill="#86519B"></path><path d="M236.099 41.8956V27.9304L222.195 41.8956H236.099Z" fill="#86519B"></path><path d="M249.997 13.9651V27.9331L236.096 13.9651H249.997Z" fill="#4F9D6F"></path><path d="M249.997 41.8956V27.9304L236.096 41.8956H249.997Z" fill="#4F9D6F"></path><path d="M194.395 13.9651V27.9303L208.296 13.9651H194.395Z" fill="#4F9D6F"></path><path d="M194.395 41.8955H208.296L194.395 27.9275V41.8955Z" fill="#4F9D6F"></path><path d="M222.197 55.8608H236.099V41.8928L222.197 55.8608Z" fill="#4F9D6F"></path><path d="M208.296 55.8608H222.198L208.296 41.8928V55.8608Z" fill="#4F9D6F"></path><path d="M236.099 0H222.195L236.099 13.968V0Z" fill="#4F9D6F"></path><path d="M208.296 0H222.198L208.296 13.968V0Z" fill="#4F9D6F"></path><path d="M249.997 0V13.968L236.096 0H249.997Z" fill="#9A754F"></path><path d="M236.099 55.8608H250V41.8928L236.099 55.8608Z" fill="#9A754F"></path><path d="M194.395 55.8608H208.296L194.395 41.8928V55.8608Z" fill="#9A754F"></path><path d="M194.395 0V13.9652L208.296 0H194.395Z" fill="#9A754F"></path><path d="M2.94174 2.99404C3.43106 2.99404 3.82308 2.60022 3.82308 2.10865C3.82308 1.61707 3.43106 1.22046 2.94174 1.22046C2.45241 1.22046 2.05762 1.61428 2.05762 2.10865C2.05762 2.60301 2.44963 2.99404 2.94174 2.99404Z" fill="white"></path><path d="M5.80795 2.99404C6.27781 2.99404 6.66982 2.60022 6.66982 2.10865C6.66982 1.61707 6.27781 1.22046 5.80795 1.22046C5.33809 1.22046 4.92383 1.61428 4.92383 2.10865C4.92383 2.60301 5.31584 2.99404 5.80795 2.99404Z" fill="white"></path><path d="M23.4041 15.7275C22.9148 15.7275 22.52 16.1409 22.52 16.6157C22.52 17.0905 22.912 17.5039 23.4041 17.5039C23.8962 17.5039 24.266 17.1101 24.266 16.6157C24.266 16.1214 23.874 15.7275 23.4041 15.7275Z" fill="white"></path><path d="M20.5599 15.7275C20.0706 15.7275 19.6758 16.1409 19.6758 16.6157C19.6758 17.0905 20.0678 17.5039 20.5599 17.5039C21.052 17.5039 21.444 17.1101 21.444 16.6157C21.444 16.1214 21.052 15.7275 20.5599 15.7275Z" fill="white"></path><path d="M30.2882 3.86266C30.797 3.86266 31.2113 3.44929 31.2113 2.91581C31.2113 2.38234 30.7998 1.98853 30.2882 1.98853C29.7766 1.98853 29.3457 2.4019 29.3457 2.91581C29.3457 3.42973 29.7572 3.86266 30.2882 3.86266Z" fill="white"></path><path d="M36.7633 17.5599C37.2721 17.5599 37.6863 17.1466 37.6863 16.6326C37.6863 16.1187 37.2749 15.6858 36.7633 15.6858C36.2517 15.6858 35.8208 16.0992 35.8208 16.6326C35.8208 17.1661 36.2323 17.5599 36.7633 17.5599Z" fill="white"></path><path d="M42.8631 12.9093H39.3127C37.9977 12.9093 37.5862 12.3171 37.5862 11.2139V6.08866H36.096V11.7055C36.096 12.5127 35.704 12.9093 34.9005 12.9093H32.6846C31.3696 12.9093 30.9581 12.3171 30.9581 11.2139V6.08866H29.4679V11.7055C29.4679 12.5127 29.0758 12.9093 28.2724 12.9093H26.0565C24.7414 12.9093 24.33 12.3171 24.33 11.2139V6.08866H22.8397V11.7055C22.8397 12.5127 22.4477 12.9093 21.6442 12.9093H10.387C10.3397 12.9093 10.3064 12.9176 10.2786 12.9316C10.2508 12.9176 10.2146 12.9093 10.1702 12.9093H10.0534C9.03303 12.9093 8.40469 12.3171 8.40469 11.2921V4.84855H6.91448V5.9127C6.2083 5.81495 5.59942 5.7535 4.93216 5.7535C2.02124 5.7535 0 7.09416 0 10.0101C0 12.3367 1.27613 13.993 3.66993 13.993C5.06283 13.993 6.21942 13.6578 7.39824 13.007C7.86811 13.6187 8.61321 13.9539 9.59464 13.9539H10.1646C10.2091 13.9539 10.2424 13.9427 10.2702 13.9287C10.3008 13.9455 10.3342 13.9539 10.3842 13.9539H21.622C22.7786 13.9539 23.5654 13.5991 23.9769 12.8506C24.3661 13.6885 25.1196 13.9483 26.0287 13.9539C26.0315 13.9539 26.0343 13.9539 26.037 13.9539H28.2529C29.4095 13.9539 30.1963 13.5991 30.6078 12.8506C30.997 13.6885 31.7504 13.9483 32.6596 13.9539C32.6624 13.9539 32.6651 13.9539 32.6679 13.9539H34.8838C36.0404 13.9539 36.8272 13.5991 37.2387 12.8506C37.6279 13.6885 38.3813 13.9483 39.2905 13.9539C39.2905 13.9539 39.296 13.9539 39.2988 13.9539H44.3617V1.04443H42.8714V12.9093H42.8631ZM4.06194 12.9484C2.31595 12.9484 1.49299 11.6077 1.49299 9.97378C1.49299 7.82593 2.8859 6.80089 5.00445 6.80089C5.61332 6.80089 6.2222 6.89865 6.90892 6.97685V11.2921C6.90892 11.5882 6.94784 11.8647 7.00623 12.1188C6.08319 12.6495 5.16292 12.9456 4.06472 12.9456" fill="white"></path><path d="M49.3354 1.04443H47.8452V13.9539H49.3354V1.04443Z" fill="white"></path><path d="M56.2612 16.7722C56.2612 19.6686 58.7134 20.3389 61.616 20.3389C62.8115 20.3389 63.8513 20.2412 65.0496 20.082V18.9592C63.893 19.1156 62.8921 19.2357 61.7745 19.2357C59.5975 19.2357 57.7931 18.7636 57.7931 16.6549C57.7931 14.8031 59.1471 13.954 60.9904 13.954H83.4604V6.06927H81.9702V12.9094H63.9153C65.4249 12.1413 66.4258 10.7225 66.4258 8.8288C66.4258 6.22848 64.5019 5.14478 62.0302 5.14478C60.1675 5.14478 58.794 5.75645 57.301 6.74239L56.7728 8.10261L59.9506 13.1468C57.7542 13.2837 56.2612 14.5266 56.2612 16.7722ZM58.1045 7.60824C59.2806 6.74239 60.3009 6.22847 61.7133 6.22847C63.615 6.22847 64.9495 7.15576 64.9495 9.10531C64.9495 11.0548 63.6734 12.2391 61.869 12.9094H61.5354L58.1018 7.60824H58.1045Z" fill="white"></path><path d="M81.6533 16.5935C81.6533 17.0851 82.0453 17.4817 82.5374 17.4817C83.0295 17.4817 83.3993 17.0879 83.3993 16.5935C83.3993 16.0991 83.0073 15.7053 82.5374 15.7053C82.0676 15.7053 81.6533 16.1187 81.6533 16.5935Z" fill="white"></path><path d="M78.8091 16.5935C78.8091 17.0851 79.2011 17.4817 79.6932 17.4817C80.1853 17.4817 80.5745 17.0879 80.5745 16.5935C80.5745 16.0991 80.1825 15.7053 79.6932 15.7053C79.2039 15.7053 78.8091 16.1187 78.8091 16.5935Z" fill="white"></path><path d="M88.8316 14.8199V6.08887H87.3414V14.8004C87.3414 16.6521 86.8104 17.8755 84.9087 17.8755L84.9476 18.9201C87.675 18.9201 88.8316 17.599 88.8316 14.8199Z" fill="white"></path><path d="M103.056 4.27604C103.545 4.27604 103.959 3.88222 103.959 3.38786C103.959 2.89349 103.548 2.48291 103.056 2.48291C102.563 2.48291 102.171 2.89628 102.171 3.38786C102.171 3.87943 102.563 4.27604 103.056 4.27604Z" fill="white"></path><path d="M105.997 4.27604C106.486 4.27604 106.881 3.88222 106.881 3.38786C106.881 2.89349 106.489 2.48291 105.997 2.48291C105.505 2.48291 105.093 2.89628 105.093 3.38786C105.093 3.87943 105.505 4.27604 105.997 4.27604Z" fill="white"></path><path d="M104.468 1.79313C104.957 1.79313 105.349 1.39931 105.349 0.907738C105.349 0.416163 104.957 0 104.468 0C103.979 0 103.564 0.41337 103.564 0.907738C103.564 1.40211 103.976 1.79313 104.468 1.79313Z" fill="white"></path><path d="M118.533 5.14182C115.747 5.14182 114.237 6.89585 114.237 9.65538C114.237 10.8564 114.532 11.8228 114.924 12.9065H109.608V6.04677H108.118V12.9065H106.881C105.802 12.9065 105.252 12.3535 105.252 11.2698V7.05226H103.761V11.7027C103.761 12.5099 103.369 12.9037 102.566 12.9037H100.37V7.06902H98.8794V12.9037H93.8193V1.04443H92.3291V12.5154C92.3291 13.4818 92.7795 13.9539 93.7415 13.9539H102.549C103.706 13.9539 104.493 13.5991 104.904 12.8506C105.238 13.56 105.905 13.9539 106.964 13.9539H118.166C121.01 13.9539 122.815 12.3562 122.815 9.49897C122.815 6.7981 121.224 5.14462 118.539 5.14462M118.185 12.9093H116.362C115.989 11.8842 115.753 10.9569 115.753 9.81458C115.753 7.80359 116.517 6.18921 118.539 6.18921C120.443 6.18921 121.285 7.60808 121.285 9.45986C121.285 11.5491 120.207 12.9093 118.185 12.9093Z" fill="white"></path><path d="M131.617 14.7807L131.597 13.9539H162.369V9.73643C162.369 6.91825 160.526 6.09151 157.367 6.09151H149.991L155.013 1.12549H153.286L148.343 6.09151V7.13611H157.367C159.742 7.13611 160.879 7.80644 160.879 9.75598V12.9093H131.617V6.08872H130.107V14.8002C130.107 16.652 129.598 17.8753 127.694 17.8753V18.9199C130.402 18.9199 131.617 17.5793 131.617 14.7807Z" fill="white"></path><path d="M130.891 3.90172C131.4 3.90172 131.814 3.48835 131.814 2.95488C131.814 2.42141 131.403 2.02759 130.891 2.02759C130.38 2.02759 129.949 2.44096 129.949 2.95488C129.949 3.4688 130.36 3.90172 130.891 3.90172Z" fill="white"></path><path d="M180.575 9.49912C180.575 6.79825 178.984 5.14478 176.298 5.14478C173.613 5.14478 172.003 6.89881 172.003 9.65833C172.003 10.8593 172.298 11.8257 172.69 12.9094H167.316V6.09162H165.806V14.8031C165.806 16.6549 165.297 17.8782 163.393 17.8782V18.9228C166.101 18.9228 167.316 17.5822 167.316 14.7836L167.296 13.9568H175.929C178.773 13.9568 180.577 12.3592 180.577 9.50192M175.948 12.9122H174.124C173.752 11.8872 173.515 10.9599 173.515 9.81753C173.515 7.80654 174.28 6.19217 176.301 6.19217C178.206 6.19217 179.048 7.61103 179.048 9.46282C179.048 11.552 177.969 12.9122 175.948 12.9122Z" fill="white"></path><path d="M16.3812 27.3158C14.0069 27.3158 12.1247 28.123 9.96719 29.1089V27.8688H8.47698V35.4184C8.47698 37.664 7.23977 38.9851 4.98499 38.9851C2.7302 38.9851 1.51246 37.664 1.51246 35.1028C1.51246 34.2341 1.64869 33.2119 1.80716 32.0472H0.275245C0.11677 33.1281 0 34.0749 0 34.9212C0 38.2533 1.76546 40.0465 4.90436 40.0465C7.70963 40.0465 9.6141 38.5885 9.92549 35.829H20.9909V31.1171C20.9909 28.4777 19.0086 27.313 16.3812 27.313M19.5007 34.7816H9.96719V30.1703C11.9884 29.1843 13.7928 28.3771 16.1282 28.3771C18.0327 28.3771 19.5034 29.2039 19.5034 31.1758V34.7816H19.5007Z" fill="white"></path><path d="M14.5965 24.0621C14.5965 23.5509 14.185 23.1348 13.6735 23.1348C13.1619 23.1348 12.731 23.5481 12.731 24.0621C12.731 24.576 13.1424 25.0089 13.6735 25.0089C14.2045 25.0089 14.5965 24.5955 14.5965 24.0621Z" fill="white"></path><path d="M31.2303 37.583C30.741 37.583 30.3462 37.9964 30.3462 38.4712C30.3462 38.946 30.7382 39.3566 31.2303 39.3566C31.7224 39.3566 32.0922 38.9628 32.0922 38.4712C32.0922 37.9796 31.7002 37.583 31.2303 37.583Z" fill="white"></path><path d="M28.3866 37.583C27.8972 37.583 27.5024 37.9964 27.5024 38.4712C27.5024 38.946 27.8945 39.3566 28.3866 39.3566C28.8787 39.3566 29.2679 38.9628 29.2679 38.4712C29.2679 37.9796 28.8759 37.583 28.3866 37.583Z" fill="white"></path><path d="M30.6607 34.7845H25.5395V22.9197H24.0493V34.3907C24.0493 35.3571 24.4997 35.8291 25.4617 35.8291H32.151V27.9444H30.6607V34.7845Z" fill="white"></path><path d="M42.8632 34.7845H37.5279V27.9639H36.0182V36.6754C36.0182 38.5272 35.5095 39.7505 33.605 39.7505V40.7951C36.3129 40.7951 37.5279 39.4545 37.5279 36.6559L37.5085 35.8291H44.3534V22.9197H42.8632V34.7845Z" fill="white"></path><path d="M49.3354 22.9197H47.8452V35.8291H49.3354V22.9197Z" fill="white"></path><path d="M58.3213 23.9838C58.3213 24.4754 58.7133 24.872 59.2026 24.872C59.692 24.872 60.0867 24.4782 60.0867 23.9838C60.0867 23.4894 59.6947 23.0984 59.2026 23.0984C58.7105 23.0984 58.3213 23.4922 58.3213 23.9838Z" fill="white"></path><path d="M61.1851 23.9838C61.1851 24.4754 61.5771 24.872 62.0664 24.872C62.5557 24.872 62.9311 24.4782 62.9311 23.9838C62.9311 23.4894 62.539 23.0984 62.0664 23.0984C61.5938 23.0984 61.1851 23.4922 61.1851 23.9838Z" fill="white"></path><path d="M71.0327 23.9643C71.0327 24.4558 71.4247 24.8524 71.9141 24.8524C72.4034 24.8524 72.7982 24.4586 72.7982 23.9643C72.7982 23.4699 72.4062 23.0789 71.9141 23.0789C71.4219 23.0789 71.0327 23.4727 71.0327 23.9643Z" fill="white"></path><path d="M73.8989 23.9643C73.8989 24.4558 74.2909 24.8524 74.7803 24.8524C75.2696 24.8524 75.6449 24.4586 75.6449 23.9643C75.6449 23.4699 75.2529 23.0789 74.7803 23.0789C74.3076 23.0789 73.8989 23.4727 73.8989 23.9643Z" fill="white"></path><path d="M100.381 25.7379C100.89 25.7379 101.304 25.3245 101.304 24.7911C101.304 24.2576 100.893 23.8638 100.381 23.8638C99.8694 23.8638 99.4385 24.2771 99.4385 24.7911C99.4385 25.305 99.8499 25.7379 100.381 25.7379Z" fill="white"></path><path d="M120.018 27.9442H118.528V34.7844H112.584C113.779 33.9576 114.232 32.8125 114.232 31.3545C114.232 28.6341 112.642 27.0197 109.976 27.0197C107.309 27.0197 105.68 28.7347 105.68 31.5137C105.68 32.6952 105.956 33.6811 106.348 34.7844H102.778C101.463 34.7844 101.051 34.1923 101.051 33.089V27.9638H99.5609V33.5806C99.5609 34.3878 99.1689 34.7816 98.3654 34.7816H94.854V31.1171C94.854 28.5168 92.9912 27.313 90.2249 27.313C87.9895 27.313 86.0461 28.0811 83.8497 29.1061V22.9167H82.3595V34.7816H77.3384C77.5163 33.8152 77.6331 32.9885 77.6331 32.1003C77.6331 29.0838 76.2402 27.0169 73.3182 27.0169C70.6908 27.0169 69.0811 28.6928 69.0811 31.3936C69.0811 32.8711 69.5509 34.0135 70.7881 34.7844H66.3175C65.2971 34.7844 64.6688 34.1923 64.6688 33.1672V26.7237H63.1786V27.7878C62.4724 27.6901 61.8635 27.6314 61.1963 27.6314C58.2937 27.6314 56.2725 28.9721 56.2725 31.888C56.2725 34.2146 57.5486 35.8681 59.9424 35.8681C61.3353 35.8681 62.4919 35.5329 63.6707 34.8821C64.1406 35.4938 64.8857 35.829 65.8671 35.829H98.3515C99.5081 35.829 100.295 35.4743 100.706 34.7257C101.093 35.558 101.835 35.8178 102.736 35.8262C102.739 35.8262 102.742 35.8262 102.747 35.8262H120.029V27.9414L120.018 27.9442ZM60.3233 34.8235C58.5773 34.8235 57.7543 33.4828 57.7543 31.8461C57.7543 29.6982 59.1472 28.6732 61.2658 28.6732C61.8747 28.6732 62.4835 28.771 63.1703 28.852V33.1672C63.1703 33.4633 63.2092 33.7398 63.2676 33.9939C62.3445 34.5274 61.4243 34.8207 60.3261 34.8207M75.7842 34.7816H73.3321C71.4693 34.7816 70.5657 33.3432 70.5657 31.4523C70.5657 29.5614 71.4498 28.1397 73.3321 28.1397C75.3922 28.1397 76.1373 29.8742 76.1373 32.0612C76.1373 32.9689 76.0011 33.7956 75.7842 34.7816ZM93.361 34.7816H83.847V30.1898C85.9461 29.1452 87.8283 28.3771 89.869 28.3771C92.0654 28.3771 93.361 29.2849 93.361 31.1758V34.7816ZM109.545 34.7816H107.799C107.426 33.737 107.17 32.7901 107.17 31.6478C107.17 29.6368 107.954 28.0615 109.956 28.0615C111.819 28.0615 112.703 29.4022 112.703 31.2735C112.703 33.3627 111.624 34.7816 109.545 34.7816Z" fill="white"></path><path d="M119.312 37.5635C118.781 37.5635 118.369 37.9768 118.369 38.5103C118.369 39.0438 118.781 39.4376 119.312 39.4376C119.843 39.4376 120.235 39.0242 120.235 38.5103C120.235 37.9964 119.823 37.5635 119.312 37.5635Z" fill="white"></path><path d="M129.885 23.0957C129.396 23.0957 129.001 23.4895 129.001 23.9839C129.001 24.4783 129.393 24.8721 129.885 24.8721C130.377 24.8721 130.766 24.4783 130.766 23.9839C130.766 23.4895 130.374 23.0957 129.885 23.0957Z" fill="white"></path><path d="M132.748 23.0957C132.259 23.0957 131.864 23.4895 131.864 23.9839C131.864 24.4783 132.256 24.8721 132.748 24.8721C133.24 24.8721 133.61 24.4783 133.61 23.9839C133.61 23.4895 133.218 23.0957 132.748 23.0957Z" fill="white"></path><path d="M141.106 37.6025C140.616 37.6025 140.222 38.0159 140.222 38.4907C140.222 38.9655 140.614 39.3789 141.106 39.3789C141.598 39.3789 141.968 38.9851 141.968 38.4907C141.968 37.9964 141.576 37.6025 141.106 37.6025Z" fill="white"></path><path d="M138.262 37.6025C137.772 37.6025 137.377 38.0159 137.377 38.4907C137.377 38.9655 137.769 39.3789 138.262 39.3789C138.754 39.3789 139.143 38.9851 139.143 38.4907C139.143 37.9964 138.751 37.6025 138.262 37.6025Z" fill="white"></path><path d="M148.462 24.8915C148.462 25.3831 148.854 25.7797 149.344 25.7797C149.833 25.7797 150.206 25.3859 150.206 24.8915C150.206 24.3971 149.814 24.0061 149.344 24.0061C148.874 24.0061 148.462 24.3999 148.462 24.8915Z" fill="white"></path><path d="M145.599 24.8915C145.599 25.3831 145.991 25.7797 146.48 25.7797C146.969 25.7797 147.361 25.3859 147.361 24.8915C147.361 24.3971 146.969 24.0061 146.48 24.0061C145.991 24.0061 145.599 24.3999 145.599 24.8915Z" fill="white"></path><path d="M166.648 24.8915C166.648 24.3999 166.256 24.0061 165.764 24.0061C165.272 24.0061 164.883 24.3999 164.883 24.8915C164.883 25.3831 165.275 25.7797 165.764 25.7797C166.253 25.7797 166.648 25.3859 166.648 24.8915Z" fill="white"></path><path d="M168.628 25.7769C169.098 25.7769 169.49 25.383 169.49 24.8887C169.49 24.3943 169.098 24.0005 168.628 24.0005C168.158 24.0005 167.744 24.3943 167.744 24.8887C167.744 25.383 168.136 25.7769 168.628 25.7769Z" fill="white"></path><path d="M173.218 34.7845H169.667C168.352 34.7845 167.941 34.1924 167.941 33.0891V27.9639H166.451V33.5807C166.451 34.3879 166.059 34.7845 165.255 34.7845H161.666V31.5334C161.666 28.4582 160.331 27.0394 156.545 27.0198C155.349 27.0198 154.015 27.1371 152.502 27.355V28.4191C153.934 28.2208 155.249 28.084 156.328 28.084C159.33 28.084 160.173 29.1481 160.173 31.4133V34.7845H150.384C149.069 34.7845 148.657 34.1924 148.657 33.0891V27.9639H147.167V33.5807C147.167 34.3879 146.775 34.7845 145.971 34.7845H143.756C142.44 34.7845 142.029 34.1924 142.029 33.0891V27.9639H140.539V33.5807C140.539 34.3879 140.147 34.7845 139.343 34.7845H136.988C135.968 34.7845 135.34 34.1924 135.34 33.1673V26.7238H133.849V27.7879C133.143 27.6902 132.534 27.6287 131.867 27.6287C128.965 27.6287 126.943 28.9694 126.943 31.8853C126.943 34.2119 128.219 35.8654 130.613 35.8654C132.006 35.8654 133.163 35.5302 134.342 34.8794C134.811 35.4911 135.557 35.8263 136.538 35.8263H139.324C140.48 35.8263 141.267 35.4716 141.679 34.723C142.068 35.5609 142.821 35.8207 143.73 35.8263C143.733 35.8263 143.736 35.8263 143.739 35.8263H145.955C147.111 35.8263 147.898 35.4716 148.31 34.723C148.693 35.5554 149.438 35.8151 150.339 35.8235C150.342 35.8235 150.348 35.8235 150.35 35.8235H165.239C166.395 35.8235 167.182 35.4688 167.593 34.7202C167.983 35.5582 168.736 35.8179 169.645 35.8235C169.645 35.8235 169.651 35.8235 169.654 35.8235H174.714V22.9141H173.223V34.7789L173.218 34.7845ZM131.003 34.8236C129.257 34.8236 128.434 33.4829 128.434 31.849C128.434 29.7011 129.826 28.6761 131.945 28.6761C132.554 28.6761 133.163 28.7739 133.849 28.8549V33.1701C133.849 33.4662 133.888 33.7427 133.947 33.9968C133.024 34.5275 132.104 34.8236 131.005 34.8236" fill="white"></path><path d="M179.69 22.9197H178.2V35.8291H179.69V22.9197Z" fill="white"></path><path d="M6.01076 53.5008L4.29257 51.0122C3.9367 50.5066 3.4724 50.2385 2.86074 50.2385H1.0647V53.5008H0.333496V45.7166H3.53078C5.07104 45.7166 6.2165 46.44 6.2165 47.9677C6.2165 49.2274 5.41579 49.9508 4.19248 50.1687C4.60674 50.3977 4.91257 50.6742 5.17947 51.0708L6.85874 53.5008H6.01076ZM3.48352 49.7525C4.63732 49.7525 5.48808 49.1576 5.47696 47.9873C5.46584 46.8366 4.62898 46.2416 3.48352 46.2416H1.0647V49.7525H3.48352Z" fill="white"></path><path d="M8.32106 46.7079C8.04303 46.7079 7.82617 46.4901 7.82617 46.2108C7.82617 45.9315 8.04303 45.7136 8.32106 45.7136C8.59908 45.7136 8.81316 45.9427 8.81316 46.2108C8.81316 46.4789 8.58518 46.7079 8.32106 46.7079ZM8.66581 53.5006H7.96518V47.9369H8.66581V53.5006Z" fill="white"></path><path d="M10.3258 47.9957L12.1329 52.6377L13.8205 48.0069L14.5295 47.9957L11.6074 55.8609H10.9263L11.816 53.4505L9.56396 47.9873L10.3258 47.9957Z" fill="white"></path><path d="M20.2459 47.937V53.5007H19.5953V52.3193C19.22 53.1041 18.5083 53.5985 17.4518 53.5985C15.7836 53.5985 14.9829 52.3779 14.9829 50.7021C14.9829 49.0263 15.792 47.8169 17.4518 47.8169C18.5083 47.8169 19.22 48.3141 19.5953 49.0961V47.937H20.2459ZM19.5453 50.7245V50.6853C19.5342 49.3559 18.9531 48.356 17.6297 48.356C16.3063 48.356 15.7336 49.367 15.7336 50.7077C15.7336 52.0484 16.2952 53.0678 17.6297 53.0678C18.9642 53.0678 19.5342 52.0567 19.5453 50.7272" fill="white"></path><path d="M26.14 48.9983V45.5657H26.8518V53.5007H26.3569L26.1789 52.35C25.8036 53.1236 25.0919 53.6096 24.0465 53.6096C22.3783 53.6096 21.5776 52.3891 21.5776 50.7132C21.5776 49.0374 22.3867 47.828 24.0465 47.828C25.0529 47.828 25.7536 48.2749 26.14 48.9983ZM26.14 50.7132C26.14 49.3754 25.5562 48.3643 24.2244 48.3643C22.8927 48.3643 22.3283 49.3754 22.3283 50.7132C22.3283 52.0511 22.8899 53.0734 24.2244 53.0734C25.559 53.0734 26.14 52.0511 26.14 50.7132Z" fill="white"></path><path d="M29.3095 49.096C29.6654 48.3028 30.3465 47.8168 31.3224 47.8168C32.6847 47.8168 33.377 48.7385 33.377 50.2663V53.4895H32.6653V50.4144C32.6653 49.2245 32.251 48.3503 31.1055 48.3503C29.7822 48.3503 29.3484 49.4899 29.3095 50.9674V53.4951H28.6089V45.5601H29.3095V49.0905V49.096Z" fill="white"></path><path d="M37.8474 45.7136H37.0967V53.4978H37.8474V45.7136Z" fill="white"></path><path d="M40.2467 47.9369V49.2468C40.572 48.3838 41.2532 47.8196 42.3208 47.8196C43.7721 47.8196 44.3837 48.8502 44.3837 50.2691V53.4922H43.672V50.4171C43.672 49.2664 43.2772 48.353 42.1012 48.353C40.661 48.353 40.3135 49.7021 40.3135 51.188L40.3051 51.1796V53.5006H39.6045V47.9369H40.2467Z" fill="white"></path><path d="M45.2318 48.3027H46.052V47.1129C46.052 45.9426 46.7832 45.3281 47.8675 45.3281C48.2511 45.3281 48.6459 45.398 49.0824 45.5655L49.0713 46.032L49.0407 46.0822C48.6348 45.9426 48.2901 45.8756 47.9648 45.8756C47.0473 45.8756 46.7609 46.5487 46.7609 47.1548V48.3055H48.7849V48.8222H46.7609V53.5034H46.0492V48.8222H45.229V48.3055L45.2318 48.3027Z" fill="white"></path><path d="M50.3253 47.9453V49.325C50.7896 48.314 51.5597 47.6995 52.6635 47.8364V48.4117C51.3123 48.2721 50.392 49.1156 50.392 50.4842V53.4978H49.6914V47.9453H50.3225H50.3253Z" fill="white"></path><path d="M58.3826 47.937V53.5007H57.7321V52.3193C57.3567 53.1041 56.645 53.5985 55.5885 53.5985C53.9203 53.5985 53.1196 52.3779 53.1196 50.7021C53.1196 49.0263 53.9287 47.8169 55.5885 47.8169C56.645 47.8169 57.3567 48.3141 57.7321 49.0961V47.937H58.3826ZM57.682 50.7245V50.6853C57.6709 49.3559 57.0898 48.356 55.7664 48.356C54.443 48.356 53.8703 49.367 53.8703 50.7077C53.8703 52.0484 54.4319 53.0678 55.7664 53.0678C57.1009 53.0678 57.6709 52.0567 57.682 50.7272" fill="white"></path><path d="M63.9594 48.1463V48.6323L63.9094 48.6714C63.2477 48.4731 62.6944 48.3754 62.0132 48.3754C61.2626 48.3754 60.5425 48.5932 60.5425 49.3166C60.5425 50.1406 61.3821 50.2188 62.2607 50.378C63.4145 50.607 64.3737 50.8053 64.3737 51.9337C64.3737 53.0621 63.2977 53.5984 61.9437 53.5984C61.1541 53.5984 60.4813 53.4699 59.7612 53.1822V52.7074L59.8113 52.6683C60.5119 52.9169 61.1347 53.0761 61.9048 53.0761C62.7945 53.0761 63.6119 52.7996 63.6119 51.9756C63.6119 51.1517 62.7639 51.0427 61.8659 50.864C60.751 50.6461 59.7918 50.4478 59.7918 49.3753C59.7918 48.2246 60.8372 47.8391 62.0827 47.8391C62.7528 47.8391 63.3172 47.9285 63.9594 48.1463Z" fill="white"></path><path d="M65.6776 47.937V46.2695H66.3894V47.937H68.0881V48.4621H66.3894V51.9617C66.3894 52.3975 66.4783 52.9728 67.2374 52.9728H67.6905V53.4979H67.1178C66.2198 53.4979 65.6776 53.0231 65.6776 51.9701V48.4593H64.8491V47.9342H65.6776V47.937Z" fill="white"></path><path d="M69.6256 47.9453V49.325C70.0899 48.314 70.86 47.6995 71.9638 47.8364V48.4117C70.6126 48.2721 69.6923 49.1156 69.6923 50.4842V53.4978H68.9917V47.9453H69.6228H69.6256Z" fill="white"></path><path d="M76.8434 53.5007V52.3612C76.5264 53.1349 75.8564 53.6013 74.8388 53.6013C73.4264 53.6013 72.6479 52.6796 72.6479 51.2496V47.937H73.3486V51.1797C73.3486 52.2802 73.8824 53.065 74.9973 53.065C76.3095 53.065 76.785 51.9925 76.785 50.6546V47.937H77.4967V53.5007H76.8461H76.8434Z" fill="white"></path><path d="M83.3463 48.9982L83.2962 49.0373C82.8013 48.543 82.2286 48.353 81.5391 48.353C80.1657 48.3419 79.5651 49.3446 79.5651 50.702C79.5651 52.0594 80.1684 53.0621 81.5196 53.0537C82.2203 53.0537 82.7819 52.8443 83.2962 52.3806L83.3463 52.4113V52.956C82.7846 53.4224 82.1813 53.6012 81.4807 53.59C79.7347 53.5704 78.8145 52.4197 78.8145 50.7048C78.8145 48.9899 79.7319 47.8391 81.439 47.8196C82.1786 47.8196 82.7819 47.9872 83.3435 48.4648V49.001L83.3463 48.9982Z" fill="white"></path><path d="M84.5307 47.937V46.2695H85.2424V47.937H86.9411V48.4621H85.2424V51.9617C85.2424 52.3975 85.3314 52.9728 86.0904 52.9728H86.5436V53.4979H85.9708C85.0728 53.4979 84.5307 53.0231 84.5307 51.9701V48.4593H83.7021V47.9342H84.5307V47.937Z" fill="white"></path><path d="M91.837 53.5007V52.3612C91.52 53.1349 90.85 53.6013 89.8324 53.6013C88.4201 53.6013 87.6416 52.6796 87.6416 51.2496V47.937H88.3422V51.1797C88.3422 52.2802 88.876 53.065 89.9909 53.065C91.3032 53.065 91.7786 51.9925 91.7786 50.6546V47.937H92.4904V53.5007H91.8398H91.837Z" fill="white"></path><path d="M94.879 47.9453V49.325C95.3433 48.314 96.1134 47.6995 97.2172 47.8364V48.4117C95.866 48.2721 94.9457 49.1156 94.9457 50.4842V53.4978H94.2451V47.9453H94.8762H94.879Z" fill="white"></path><path d="M102.883 50.487V50.9143H98.3622C98.4206 52.2829 99.2519 53.0873 100.642 53.0873C101.373 53.0873 101.993 52.9002 102.566 52.4226L102.616 52.4533V52.97C102.004 53.3862 101.393 53.5845 100.631 53.5845C98.8543 53.5845 97.6699 52.5343 97.6699 50.7272C97.6699 48.9201 98.6569 47.8308 100.356 47.8308C101.965 47.8308 102.883 48.8922 102.883 50.4898M102.152 50.42C102.141 49.219 101.559 48.328 100.345 48.328C99.1296 48.328 98.4679 49.2497 98.3706 50.42H102.152Z" fill="white"></path><path d="M109.648 45.7053C111.196 45.7053 112.353 46.4483 112.353 48.0152C112.353 49.5821 111.199 50.3166 109.648 50.3166H107.132V53.4895H106.381V45.7053H109.648ZM109.578 49.7915C110.754 49.7915 111.602 49.1855 111.591 48.0068C111.58 46.8365 110.732 46.2416 109.578 46.2416H107.129V49.7915H109.578Z" fill="white"></path><path d="M114.304 47.9453V49.325C114.769 48.314 115.539 47.6995 116.642 47.8364V48.4117C115.291 48.2721 114.371 49.1156 114.371 50.4842V53.4978H113.67V47.9453H114.302H114.304Z" fill="white"></path><path d="M122.628 50.7048C122.628 52.4505 121.602 53.6096 119.865 53.59C118.127 53.5705 117.101 52.4393 117.101 50.7048C117.101 48.9704 118.138 47.8392 119.865 47.8196C121.602 47.8112 122.628 48.9592 122.628 50.7048ZM121.889 50.7048C121.889 49.3474 121.216 48.3559 119.865 48.3559C118.513 48.3447 117.829 49.3474 117.829 50.7048C117.829 52.0623 118.5 53.065 119.865 53.0566C121.216 53.0566 121.889 52.065 121.889 50.7048Z" fill="white"></path><path d="M122.776 55.1654C123.271 55.0173 123.96 54.5397 123.96 53.3611V47.937H124.661V53.213C124.661 54.2632 124.188 55.4335 123.012 55.6234L122.776 55.1682V55.1654ZM124.316 46.7053C124.041 46.7053 123.821 46.4874 123.821 46.2081C123.821 45.9288 124.038 45.7109 124.316 45.7109C124.594 45.7109 124.808 45.94 124.808 46.2081C124.808 46.4762 124.58 46.7053 124.316 46.7053Z" fill="white"></path><path d="M131.197 50.487V50.9143H126.677C126.735 52.2829 127.566 53.0873 128.956 53.0873C129.688 53.0873 130.308 52.9002 130.88 52.4226L130.93 52.4533V52.97C130.319 53.3862 129.707 53.5845 128.945 53.5845C127.169 53.5845 125.984 52.5343 125.984 50.7272C125.984 48.9201 126.971 47.8308 128.67 47.8308C130.28 47.8308 131.197 48.8922 131.197 50.4898M130.466 50.42C130.455 49.219 129.874 48.328 128.659 48.328C127.444 48.328 126.782 49.2497 126.685 50.42H130.466Z" fill="white"></path><path d="M136.616 48.9982L136.566 49.0373C136.071 48.543 135.498 48.353 134.809 48.353C133.435 48.3419 132.835 49.3446 132.835 50.702C132.835 52.0594 133.438 53.0621 134.789 53.0537C135.49 53.0537 136.051 52.8443 136.566 52.3806L136.616 52.4113V52.956C136.054 53.4224 135.451 53.6012 134.75 53.59C133.004 53.5704 132.084 52.4197 132.084 50.7048C132.084 48.9899 133.001 47.8391 134.709 47.8196C135.448 47.8196 136.051 47.9872 136.613 48.4648V49.001L136.616 48.9982Z" fill="white"></path><path d="M137.8 47.937V46.2695H138.512V47.937H140.211V48.4621H138.512V51.9617C138.512 52.3975 138.601 52.9728 139.36 52.9728H139.813V53.4979H139.24C138.342 53.4979 137.8 53.0231 137.8 51.9701V48.4593H136.972V47.9342H137.8V47.937Z" fill="white"></path><path d="M144.929 48.1463V48.6323L144.879 48.6714C144.217 48.4731 143.664 48.3754 142.983 48.3754C142.232 48.3754 141.512 48.5932 141.512 49.3166C141.512 50.1406 142.351 50.2188 143.23 50.378C144.384 50.607 145.343 50.8053 145.343 51.9337C145.343 53.0621 144.267 53.5984 142.916 53.5984C142.126 53.5984 141.453 53.4699 140.733 53.1822V52.7074L140.783 52.6683C141.484 52.9169 142.107 53.0761 142.877 53.0761C143.767 53.0761 144.584 52.7996 144.584 51.9756C144.584 51.1517 143.736 51.0427 142.838 50.864C141.723 50.6461 140.764 50.4478 140.764 49.3753C140.764 48.2246 141.809 47.8391 143.055 47.8391C143.725 47.8391 144.289 47.9285 144.932 48.1463" fill="white"></path><path d="M154.446 46.1521V46.6185L154.376 46.6688C153.637 46.3308 152.964 46.1242 152.174 46.1242C150.122 46.1242 149.163 47.5821 149.163 49.6155C149.163 51.6488 150.17 53.0872 152.205 53.0872C153.014 53.0872 153.676 52.9001 154.396 52.5314L154.465 52.5817V53.0677C153.715 53.4056 153.033 53.6039 152.205 53.6039C149.778 53.6039 148.404 52.037 148.404 49.5987C148.404 47.1604 149.639 45.613 151.996 45.613C152.886 45.613 153.626 45.7918 154.446 46.1577" fill="white"></path><path d="M160.565 50.487V50.9143H156.044C156.103 52.2829 156.934 53.0873 158.324 53.0873C159.055 53.0873 159.675 52.9002 160.248 52.4226L160.298 52.4533V52.97C159.686 53.3862 159.075 53.5845 158.313 53.5845C156.536 53.5845 155.352 52.5343 155.352 50.7272C155.352 48.9201 156.339 47.8308 158.038 47.8308C159.648 47.8308 160.565 48.8922 160.565 50.4898M159.834 50.42C159.823 49.219 159.242 48.328 158.027 48.328C156.812 48.328 156.15 49.2497 156.053 50.42H159.834Z" fill="white"></path><path d="M162.53 47.9369V49.2468C162.856 48.3838 163.537 47.8196 164.604 47.8196C166.056 47.8196 166.667 48.8502 166.667 50.2691V53.4922H165.956V50.4171C165.956 49.2664 165.561 48.353 164.385 48.353C162.945 48.353 162.597 49.7021 162.597 51.188L162.589 51.1796V53.5006H161.888V47.9369H162.53Z" fill="white"></path><path d="M168.185 47.937V46.2695H168.897V47.937H170.596V48.4621H168.897V51.9617C168.897 52.3975 168.986 52.9728 169.745 52.9728H170.198V53.4979H169.626C168.728 53.4979 168.185 53.0231 168.185 51.9701V48.4593H167.357V47.9342H168.185V47.937Z" fill="white"></path><path d="M176.282 50.487V50.9143H171.761C171.82 52.2829 172.651 53.0873 174.041 53.0873C174.772 53.0873 175.392 52.9002 175.965 52.4226L176.015 52.4533V52.97C175.403 53.3862 174.792 53.5845 174.03 53.5845C172.253 53.5845 171.069 52.5343 171.069 50.7272C171.069 48.9201 172.056 47.8308 173.755 47.8308C175.364 47.8308 176.282 48.8922 176.282 50.4898M175.551 50.42C175.539 49.219 174.958 48.328 173.743 48.328C172.528 48.328 171.867 49.2497 171.769 50.42H175.551Z" fill="white"></path><path d="M178.236 47.9453V49.325C178.701 48.314 179.471 47.6995 180.575 47.8364V48.4117C179.223 48.2721 178.303 49.1156 178.303 50.4842V53.4978H177.603V47.9453H178.234H178.236Z" fill="white"></path></g></g><defs><clipPath id="clip0_2505_27892"><rect width="250" height="55.8608" fill="white"></rect></clipPath></defs></svg>