<svg width="18" height="18" viewBox="0 0 18 18" fill="none" xmlns="http://www.w3.org/2000/svg">
<g id="IONIcon/S/stats/chart">
<path id="Vector" d="M3.65625 17.438H2.53125C2.30747 17.438 2.09286 17.3491 1.93463 17.1909C1.77639 17.0326 1.6875 16.818 1.6875 16.5942V11.5317C1.6875 11.308 1.77639 11.0934 1.93463 10.9351C2.09286 10.7769 2.30747 10.688 2.53125 10.688H3.65625C3.88003 10.688 4.09464 10.7769 4.25287 10.9351C4.4111 11.0934 4.5 11.308 4.5 11.5317V16.5942C4.5 16.818 4.4111 17.0326 4.25287 17.1909C4.09464 17.3491 3.88003 17.438 3.65625 17.438Z" fill="#4E9B6E"/>
<path id="Vector_2" d="M11.5312 17.437H10.4062C10.1825 17.437 9.96786 17.3481 9.80963 17.1899C9.6514 17.0316 9.5625 16.817 9.5625 16.5933V8.15576C9.5625 7.93199 9.6514 7.71737 9.80963 7.55914C9.96786 7.40091 10.1825 7.31201 10.4062 7.31201H11.5312C11.755 7.31201 11.9696 7.40091 12.1279 7.55914C12.2861 7.71737 12.375 7.93199 12.375 8.15576V16.5933C12.375 16.817 12.2861 17.0316 12.1279 17.1899C11.9696 17.3481 11.755 17.437 11.5312 17.437Z" fill="#4E9B6E"/>
<path id="Vector_3" d="M15.4687 17.4374H14.3437C14.12 17.4374 13.9054 17.3485 13.7471 17.1902C13.5889 17.032 13.5 16.8174 13.5 16.5936V4.21863C13.5 3.99485 13.5889 3.78024 13.7471 3.62201C13.9054 3.46377 14.12 3.37488 14.3437 3.37488H15.4687C15.6925 3.37488 15.9071 3.46377 16.0654 3.62201C16.2236 3.78024 16.3125 3.99485 16.3125 4.21863V16.5936C16.3125 16.8174 16.2236 17.032 16.0654 17.1902C15.9071 17.3485 15.6925 17.4374 15.4687 17.4374Z" fill="#4E9B6E"/>
<path id="Vector_4" d="M7.59375 17.4373H6.46875C6.24497 17.4373 6.03036 17.3484 5.87213 17.1901C5.71389 17.0319 5.625 16.8173 5.625 16.5935V1.40601C5.625 1.18223 5.71389 0.967618 5.87213 0.809384C6.03036 0.651151 6.24497 0.562256 6.46875 0.562256H7.59375C7.81753 0.562256 8.03214 0.651151 8.19037 0.809384C8.3486 0.967618 8.4375 1.18223 8.4375 1.40601V16.5935C8.4375 16.8173 8.3486 17.0319 8.19037 17.1901C8.03214 17.3484 7.81753 17.4373 7.59375 17.4373Z" fill="#4E9B6E"/>
</g>
</svg>
