<svg width="18" height="18" viewBox="0 0 18 18" fill="none" xmlns="http://www.w3.org/2000/svg">
<g id="Icon-Database">
<path id="Vector" d="M15.1875 5.625C15.1875 7.48896 12.4173 9 9 9C5.58274 9 2.8125 7.48896 2.8125 5.625M15.1875 5.625C15.1875 3.76104 12.4173 2.25 9 2.25C5.58274 2.25 2.8125 3.76104 2.8125 5.625M15.1875 5.625V9M2.8125 5.625V9M2.8125 9C2.8125 10.8633 5.58281 12.375 9 12.375C12.4172 12.375 15.1875 10.8633 15.1875 9M2.8125 9V12.375C2.8125 14.2383 5.58281 15.75 9 15.75C12.4172 15.75 15.1875 14.2383 15.1875 12.375V9" stroke="#4E9B6E" stroke-width="1.2" stroke-linecap="round" stroke-linejoin="round"/>
</g>
</svg>
