<svg width="19" height="18" viewBox="0 0 19 18" fill="none" xmlns="http://www.w3.org/2000/svg">
<g id="vuesax/linear/empty-wallet">
<g id="Group">
<path id="Vector" d="M14.03 10.1625C13.715 10.47 13.535 10.9125 13.58 11.385C13.6475 12.195 14.39 12.7875 15.2 12.7875H16.625V13.68C16.625 15.2325 15.3575 16.5 13.805 16.5H5.195C3.6425 16.5 2.375 15.2325 2.375 13.68V8.63251C2.375 7.08001 3.6425 5.8125 5.195 5.8125H13.805C15.3575 5.8125 16.625 7.08001 16.625 8.63251V9.71251H15.11C14.69 9.71251 14.3075 9.87749 14.03 10.1625Z" stroke="#4E9B6E" stroke-width="1.125" stroke-linecap="round" stroke-linejoin="round"/>
<path id="Vector_2" d="M2.375 9.3076V5.88014C2.375 4.98764 2.9225 4.19261 3.755 3.87761L9.71 1.62761C10.64 1.27511 11.6375 1.96513 11.6375 2.96263V5.81262" stroke="#4E9B6E" stroke-width="1.125" stroke-linecap="round" stroke-linejoin="round"/>
</g>
<path id="Vector_3" d="M17.4191 10.4776V12.0227C17.4191 12.4352 17.0891 12.7726 16.6691 12.7876H15.1991C14.3891 12.7876 13.6466 12.1951 13.5791 11.3851C13.5341 10.9126 13.7141 10.4701 14.0291 10.1626C14.3066 9.87763 14.6891 9.71265 15.1091 9.71265H16.6691C17.0891 9.72765 17.4191 10.0651 17.4191 10.4776Z" stroke="#4E9B6E" stroke-width="1.125" stroke-linecap="round" stroke-linejoin="round"/>
</g>
</svg>
