<svg width="18" height="18" viewBox="0 0 18 18" fill="none" xmlns="http://www.w3.org/2000/svg">
<g id="Icon-Gear">
<g id="Vector">
<path d="M8.99994 12.3749C10.8639 12.3749 12.3749 10.8639 12.3749 8.99994C12.3749 7.13598 10.8639 5.62494 8.99994 5.62494C7.13598 5.62494 5.62494 7.13598 5.62494 8.99994C5.62494 10.8639 7.13598 12.3749 8.99994 12.3749Z" stroke="#4E9B6E" stroke-width="1.2" stroke-linecap="round" stroke-linejoin="round"/>
<path d="M12.9165 4.57739C13.0946 4.74145 13.2633 4.91021 13.4227 5.08364L15.3422 5.35786C15.655 5.90103 15.8961 6.48243 16.0594 7.08755L14.8922 8.64145C14.8922 8.64145 14.9133 9.11958 14.8922 9.35864L16.0594 10.9125C15.8968 11.5179 15.6557 12.0994 15.3422 12.6422L13.4227 12.9165C13.4227 12.9165 13.0922 13.261 12.9165 13.4227L12.6422 15.3422C12.0991 15.655 11.5177 15.8961 10.9125 16.0594L9.35864 14.8922C9.12005 14.9133 8.88005 14.9133 8.64145 14.8922L7.08755 16.0594C6.48217 15.8968 5.90068 15.6557 5.35786 15.3422L5.08364 13.4227C4.91021 13.2586 4.74145 13.0899 4.57739 12.9165L2.65786 12.6422C2.3451 12.0991 2.10403 11.5177 1.94067 10.9125L3.10786 9.35864C3.10786 9.35864 3.08677 8.88052 3.10786 8.64145L1.94067 7.08755C2.10327 6.48217 2.34438 5.90068 2.65786 5.35786L4.57739 5.08364C4.74145 4.91021 4.91021 4.74145 5.08364 4.57739L5.35786 2.65786C5.90103 2.3451 6.48243 2.10403 7.08755 1.94067L8.64145 3.10786C8.88005 3.08676 9.12005 3.08676 9.35864 3.10786L10.9125 1.94067C11.5179 2.10327 12.0994 2.34438 12.6422 2.65786L12.9165 4.57739Z" stroke="#4E9B6E" stroke-width="1.2" stroke-linecap="round" stroke-linejoin="round"/>
</g>
</g>
</svg>
