<svg width="42" height="42" viewBox="0 0 42 42" fill="none" xmlns="http://www.w3.org/2000/svg">
<path d="M18.3447 2.73966L1.41246 35.7827C1.14272 36.3105 1.00048 36.9092 1 37.5187C0.999523 38.1282 1.14082 38.7272 1.40974 39.2556C1.67866 39.784 2.06576 40.2233 2.53225 40.5294C2.99875 40.8356 3.52826 40.9979 4.06775 41H37.9323C38.4717 40.9979 39.0013 40.8356 39.4677 40.5294C39.9342 40.2233 40.3213 39.784 40.5903 39.2556C40.8592 38.7272 41.0005 38.1282 41 37.5187C40.9995 36.9092 40.8573 36.3105 40.5875 35.7827L23.6553 2.73966C23.3876 2.21112 23.001 1.77187 22.5347 1.46638C22.0684 1.16089 21.539 1 21 1C20.461 1 19.9316 1.16089 19.4653 1.46638C18.999 1.77187 18.6124 2.21112 18.3447 2.73966Z" fill="#F2F2F2"/>
<path d="M20.2303 33.174C20.2303 33.6543 20.5749 34.0436 21 34.0436C21.4251 34.0436 21.7696 33.6543 21.7696 33.174C21.7696 32.6938 21.425 32.3044 20.9999 32.3044C20.8173 32.3044 20.6496 32.3763 20.5177 32.4964C20.3424 32.6558 20.2303 32.9001 20.2303 33.174Z" fill="#F2F2F2"/>
<path d="M20.2303 33.174C20.2303 33.6543 20.5749 34.0436 21 34.0436C21.4251 34.0436 21.7696 33.6543 21.7696 33.174C21.7696 32.6938 21.425 32.3044 20.9999 32.3044C20.8173 32.3044 20.6496 32.3763 20.5177 32.4964C20.3424 32.6558 20.2303 32.9001 20.2303 33.174Z" fill="#F2F2F2"/>
<path d="M22 16.6525C22 16.1002 21.5523 15.6525 21 15.6525C20.4477 15.6525 20 16.1002 20 16.6525H22ZM20 25.348C20 25.9003 20.4477 26.348 21 26.348C21.5523 26.348 22 25.9003 22 25.348H20ZM18.3447 2.73966L19.2347 3.1957L19.2368 3.19152L18.3447 2.73966ZM1.41246 35.7827L0.522505 35.3266L0.521999 35.3276L1.41246 35.7827ZM4.06775 41L4.06377 42H4.06775V41ZM37.9323 41V42L37.9362 42L37.9323 41ZM40.5875 35.7827L41.478 35.3276L41.4775 35.3266L40.5875 35.7827ZM23.6553 2.73966L22.7632 3.19153L22.7653 3.1957L23.6553 2.73966ZM20.9999 32.3044V31.3044H20.9998L20.9999 32.3044ZM20.5177 32.4964L19.8448 31.7566L20.5177 32.4964ZM21 33.174L20.1853 33.7539L20.4843 34.174H21V33.174ZM20 16.6525V25.348H22V16.6525H20ZM17.4548 2.28362L0.522506 35.3266L2.30242 36.2387L19.2347 3.1957L17.4548 2.28362ZM0.521999 35.3276C0.178305 36.0002 0.000599623 36.7551 1.49012e-06 37.5179L2 37.5195C2.00036 37.0633 2.10713 36.6209 2.30293 36.2377L0.521999 35.3276ZM1.49012e-06 37.5179C-0.000596642 38.2808 0.175924 39.036 0.518523 39.7092L2.30096 38.802C2.10572 38.4184 1.99964 37.9757 2 37.5195L1.49012e-06 37.5179ZM0.518523 39.7092C0.861274 40.3826 1.36241 40.9578 1.98358 41.3655L3.08093 39.6934C2.76911 39.4887 2.49605 39.1853 2.30096 38.802L0.518523 39.7092ZM1.98358 41.3655C2.60608 41.774 3.32378 41.997 4.06377 42L4.07173 40C3.73275 39.9987 3.39142 39.8972 3.08093 39.6934L1.98358 41.3655ZM4.06775 42H37.9323V40H4.06775V42ZM37.9362 42C38.6762 41.997 39.3939 41.774 40.0164 41.3655L38.9191 39.6934C38.6086 39.8972 38.2673 39.9987 37.9283 40L37.9362 42ZM40.0164 41.3655C40.6376 40.9578 41.1387 40.3826 41.4815 39.7092L39.699 38.802C39.504 39.1853 39.2309 39.4887 38.9191 39.6934L40.0164 41.3655ZM41.4815 39.7092C41.8241 39.036 42.0006 38.2808 42 37.5179L40 37.5195C40.0004 37.9757 39.8943 38.4184 39.699 38.802L41.4815 39.7092ZM42 37.5179C41.9994 36.7551 41.8217 36.0002 41.478 35.3276L39.6971 36.2377C39.8929 36.6209 39.9996 37.0633 40 37.5195L42 37.5179ZM41.4775 35.3266L24.5452 2.28362L22.7653 3.1957L39.6976 36.2387L41.4775 35.3266ZM24.5474 2.28779C24.2057 1.61333 23.7046 1.03736 23.0827 0.629916L21.9867 2.30284C22.2974 2.50638 22.5694 2.8089 22.7632 3.19152L24.5474 2.28779ZM23.0827 0.629916C22.4595 0.221583 21.7406 0 21 0V2C21.3374 2 21.6774 2.10019 21.9867 2.30284L23.0827 0.629916ZM21 0C20.2594 0 19.5405 0.221584 18.9173 0.629916L20.0133 2.30284C20.3226 2.10019 20.6626 2 21 2V0ZM18.9173 0.629916C18.2954 1.03736 17.7943 1.61333 17.4526 2.28779L19.2368 3.19152C19.4306 2.80891 19.7026 2.50638 20.0133 2.30284L18.9173 0.629916ZM21 33.0436C21.1061 33.0436 21.1765 33.0944 21.2045 33.1261C21.2309 33.1558 21.2303 33.1757 21.2303 33.174H19.2303C19.2303 34.0885 19.9116 35.0436 21 35.0436V33.0436ZM20.7696 33.174C20.7696 33.1758 20.769 33.1559 20.7954 33.1261C20.8234 33.0944 20.8939 33.0436 21 33.0436V35.0436C22.0886 35.0436 22.7696 34.0883 22.7696 33.174H20.7696ZM20.9999 33.3044C20.8938 33.3044 20.8234 33.2535 20.7954 33.2219C20.7691 33.1922 20.7696 33.1723 20.7696 33.174H22.7696C22.7696 32.2596 22.0884 31.3044 20.9999 31.3044V33.3044ZM20.2511 32.9672L21.0208 33.8368L22.5184 32.5112L21.7487 31.6416L20.2511 32.9672ZM20.9998 31.3044C20.5452 31.3045 20.1429 31.4855 19.8448 31.7566L21.1905 33.2362C21.1564 33.2672 21.0895 33.3044 21 33.3044L20.9998 31.3044ZM19.8448 31.7566C19.4533 32.1127 19.2303 32.6294 19.2303 33.174H21.2303C21.2303 33.1738 21.2303 33.1796 21.2258 33.1899C21.2217 33.1994 21.212 33.2166 21.1905 33.2362L19.8448 31.7566ZM19.703 33.0763C19.8959 33.3473 20.0165 33.5167 20.0888 33.6184C20.125 33.6692 20.1491 33.7031 20.1642 33.7243C20.1717 33.7349 20.177 33.7423 20.1804 33.747C20.1821 33.7494 20.1833 33.7511 20.1841 33.7523C20.1845 33.7528 20.1848 33.7532 20.185 33.7535C20.1851 33.7536 20.1852 33.7537 20.1852 33.7538C20.1853 33.7538 20.1853 33.7539 20.1853 33.7539C20.1853 33.7539 20.1853 33.7539 20.1853 33.7539C20.1853 33.7539 20.1853 33.7539 20.1853 33.7539C20.1853 33.7539 20.1853 33.7539 21 33.174C21.8147 32.5941 21.8147 32.5941 21.8147 32.5941C21.8147 32.5941 21.8147 32.5941 21.8147 32.5941C21.8147 32.5941 21.8147 32.5941 21.8147 32.5941C21.8147 32.5941 21.8146 32.5941 21.8146 32.594C21.8146 32.594 21.8145 32.5939 21.8144 32.5937C21.8142 32.5935 21.8139 32.593 21.8135 32.5925C21.8127 32.5914 21.8115 32.5896 21.8098 32.5872C21.8064 32.5825 21.8011 32.5751 21.7936 32.5645C21.7785 32.5433 21.7544 32.5094 21.7182 32.4586C21.6459 32.357 21.5253 32.1876 21.3324 31.9165L19.703 33.0763ZM21 34.174H21.7696V32.174H21V34.174Z" fill="#874E9F"/>
</svg>
