<svg width="56" height="56" viewBox="0 0 56 56" fill="none" xmlns="http://www.w3.org/2000/svg">
<g id="Icon-Money">
<rect width="56" height="56" rx="28" fill="#BDBDBD" fill-opacity="0.2"/>
<path id="Vector" d="M38.5 14L52.5 26.25M38.5 42L52.5 29.75M17.5 14L3.5 26.25M17.5 42L3.5 29.75M5.25 14H50.75C51.7165 14 52.5 14.7835 52.5 15.75V40.25C52.5 41.2165 51.7165 42 50.75 42H5.25C4.2835 42 3.5 41.2165 3.5 40.25V15.75C3.5 14.7835 4.2835 14 5.25 14ZM35 28C35 31.866 31.866 35 28 35C24.134 35 21 31.866 21 28C21 24.134 24.134 21 28 21C31.866 21 35 24.134 35 28Z" stroke="#874E9F" stroke-width="2.5" stroke-linecap="round" stroke-linejoin="round"/>
</g>
</svg>
