<svg width="19" height="19" viewBox="0 0 19 19" fill="none" xmlns="http://www.w3.org/2000/svg">
<g id="vuesax/bold/notification">
<g id="notification">
<path id="Vector" d="M14.755 11.3663L14.005 10.1213C13.8475 9.84378 13.705 9.31878 13.705 9.01128V7.11378C13.705 5.35128 12.67 3.82878 11.1775 3.11628C10.7875 2.42628 10.0675 1.99878 9.24246 1.99878C8.42496 1.99878 7.68996 2.44128 7.29996 3.13878C5.83746 3.86628 4.82496 5.37378 4.82496 7.11378V9.01128C4.82496 9.31878 4.68246 9.84378 4.52496 10.1138L3.76746 11.3663C3.46746 11.8688 3.39996 12.4238 3.58746 12.9338C3.76746 13.4363 4.19496 13.8263 4.74996 14.0138C6.20496 14.5088 7.73496 14.7488 9.26496 14.7488C10.795 14.7488 12.325 14.5088 13.78 14.0213C14.305 13.8488 14.71 13.4513 14.905 12.9338C15.1 12.4163 15.0475 11.8463 14.755 11.3663Z" fill="white"/>
<path id="Vector_2" d="M11.3728 15.5063C11.0578 16.3763 10.2253 16.9988 9.25025 16.9988C8.65775 16.9988 8.07275 16.7588 7.66025 16.3313C7.42025 16.1063 7.24025 15.8063 7.13525 15.4988C7.23275 15.5138 7.33025 15.5213 7.43525 15.5363C7.60775 15.5588 7.78775 15.5813 7.96775 15.5963C8.39525 15.6338 8.83025 15.6563 9.26525 15.6563C9.69275 15.6563 10.1203 15.6338 10.5403 15.5963C10.6978 15.5813 10.8553 15.5738 11.0053 15.5513C11.1253 15.5363 11.2453 15.5213 11.3728 15.5063Z" fill="white"/>
</g>
</g>
</svg>
