<svg width="24" height="24" viewBox="0 0 24 24" fill="none" xmlns="http://www.w3.org/2000/svg">
<g id="Icon-BellRinging">
<path id="Vector" d="M9 18V18.75C9 19.5456 9.31607 20.3087 9.87868 20.8713C10.4413 21.4339 11.2044 21.75 12 21.75C12.7956 21.75 13.5587 21.4339 14.1213 20.8713C14.6839 20.3087 15 19.5456 15 18.75V18M17.1938 2.25C18.7209 3.21395 19.9534 4.57938 20.7563 6.19687M3.24365 6.19687C4.04664 4.57938 5.2791 3.21395 6.80615 2.25M5.26879 10.5C5.26879 9.61609 5.4429 8.74078 5.78118 7.92411C6.11946 7.10744 6.61528 6.36539 7.24033 5.74034C7.86539 5.11528 8.60743 4.61946 9.42411 4.28118C10.2408 3.94291 11.1161 3.7688 12 3.7688C12.884 3.7688 13.7593 3.94291 14.576 4.28118C15.3927 4.61946 16.1347 5.11528 16.7598 5.74034C17.3848 6.36539 17.8806 7.10744 18.2189 7.92411C18.5572 8.74078 18.7313 9.61609 18.7313 10.5C18.7313 13.8563 19.4344 15.8063 20.0532 16.875C20.1189 16.9889 20.1535 17.118 20.1537 17.2494C20.1538 17.3808 20.1193 17.51 20.0538 17.6239C19.9883 17.7378 19.894 17.8326 19.7804 17.8986C19.6667 17.9646 19.5377 17.9996 19.4063 18H4.59379C4.46237 17.9996 4.33337 17.9646 4.21972 17.8986C4.10607 17.8326 4.01177 17.7378 3.94626 17.6239C3.88074 17.51 3.84632 17.3808 3.84644 17.2494C3.84655 17.118 3.8812 16.9889 3.94692 16.875C4.56567 15.8063 5.26879 13.8563 5.26879 10.5Z" stroke="#4D4D4D" stroke-width="1.5" stroke-linecap="round" stroke-linejoin="round"/>
</g>
</svg>
