<svg width="18" height="18" viewBox="0 0 18 18" fill="none" xmlns="http://www.w3.org/2000/svg">
<g id="Icon-PencilSimpleLine">
<path id="Vector" d="M6.75 15.1876H3.375C3.22582 15.1876 3.08275 15.1283 2.97726 15.0228C2.87177 14.9173 2.8125 14.7742 2.8125 14.6251V11.4821C2.81225 11.4091 2.8264 11.3367 2.85415 11.2691C2.8819 11.2015 2.9227 11.1401 2.97422 11.0883L11.4117 2.65084C11.4641 2.59769 11.5265 2.55549 11.5953 2.52668C11.6641 2.49787 11.7379 2.48303 11.8125 2.48303C11.8871 2.48303 11.9609 2.49787 12.0298 2.52668C12.0986 2.55549 12.1609 2.59769 12.2133 2.65084L15.3492 5.78678C15.4024 5.83912 15.4446 5.90151 15.4734 5.97031C15.5022 6.03912 15.517 6.11297 15.517 6.18756C15.517 6.26215 15.5022 6.336 15.4734 6.40481C15.4446 6.47361 15.4024 6.536 15.3492 6.58834L6.75 15.1876ZM6.75 15.1876L15.1875 15.1876M9.5625 4.50005L13.5 8.43755" stroke="#4E9B6E" stroke-width="1.2" stroke-linecap="round" stroke-linejoin="round"/>
</g>
</svg>
