<svg width="40" height="41" viewBox="0 0 40 41" fill="none" xmlns="http://www.w3.org/2000/svg">
<path d="M2.125 15.2984V3.375C2.125 2.94402 2.29621 2.5307 2.60095 2.22595C2.9057 1.92121 3.31902 1.75 3.75 1.75H36.25C36.681 1.75 37.0943 1.92121 37.399 2.22595C37.7038 2.5307 37.875 2.94402 37.875 3.375V15.2984C37.875 32.3609 23.3922 38.0078 20.5078 38.9625C20.1801 39.0838 19.8199 39.0838 19.4922 38.9625C16.6078 38.0078 2.125 32.3609 2.125 15.2984Z" fill="#F2F2F2"/>
<path d="M28.9375 13.125L17.0141 24.5L11.0625 18.8125" fill="#F2F2F2"/>
<path d="M28.9375 13.125L17.0141 24.5L11.0625 18.8125M2.125 15.2984V3.375C2.125 2.94402 2.29621 2.5307 2.60095 2.22595C2.9057 1.92121 3.31902 1.75 3.75 1.75H36.25C36.681 1.75 37.0943 1.92121 37.399 2.22595C37.7038 2.5307 37.875 2.94402 37.875 3.375V15.2984C37.875 32.3609 23.3922 38.0078 20.5078 38.9625C20.1801 39.0838 19.8199 39.0838 19.4922 38.9625C16.6078 38.0078 2.125 32.3609 2.125 15.2984Z" stroke="#874E9F" stroke-width="2.31111" stroke-linecap="round" stroke-linejoin="round"/>
</svg>
