<svg width="18" height="18" viewBox="0 0 18 18" fill="none" xmlns="http://www.w3.org/2000/svg">
<g id="Icon-UserGear">
<path id="Vector" d="M1.10139 13.6768C0.888402 13.9307 0.921528 14.3091 1.17538 14.5221C1.42924 14.7351 1.80769 14.702 2.02068 14.4481L1.10139 13.6768ZM13.167 14.4481C13.38 14.702 13.7585 14.7351 14.0123 14.5221C14.2662 14.3091 14.2993 13.9307 14.0863 13.6768L13.167 14.4481ZM16.0686 7.59375C16.0686 7.26238 15.8 6.99375 15.4686 6.99375C15.1373 6.99375 14.8686 7.26238 14.8686 7.59375H16.0686ZM14.1891 9.51845C14.4754 9.68525 14.8427 9.58834 15.0095 9.30201C15.1763 9.01568 15.0794 8.64835 14.7931 8.48155L14.1891 9.51845ZM14.0689 8.05968C13.7825 7.89288 13.4152 7.98978 13.2484 8.27612C13.0816 8.56245 13.1785 8.92978 13.4648 9.09657L14.0689 8.05968ZM14.7931 10.6434C15.0794 10.4767 15.1763 10.1093 15.0095 9.82299C14.8427 9.53666 14.4754 9.43975 14.1891 9.60655L14.7931 10.6434ZM13.4648 10.0284C13.1785 10.1952 13.0816 10.5626 13.2484 10.8489C13.4152 11.1352 13.7825 11.2321 14.0689 11.0653L13.4648 10.0284ZM14.8686 11.5312C14.8686 11.8626 15.1373 12.1313 15.4686 12.1313C15.8 12.1313 16.0686 11.8626 16.0686 11.5312H14.8686ZM16.7479 9.60655C16.4615 9.43975 16.0942 9.53666 15.9274 9.82299C15.7606 10.1093 15.8575 10.4767 16.1439 10.6434L16.7479 9.60655ZM16.8681 11.0653C17.1544 11.2321 17.5217 11.1352 17.6885 10.8489C17.8553 10.5626 17.7584 10.1952 17.4721 10.0284L16.8681 11.0653ZM16.1439 8.48155C15.8575 8.64835 15.7606 9.01568 15.9274 9.30201C16.0942 9.58834 16.4615 9.68525 16.7479 9.51845L16.1439 8.48155ZM17.4721 9.09657C17.7584 8.92978 17.8553 8.56245 17.6885 8.27612C17.5217 7.98978 17.1544 7.89288 16.8681 8.05968L17.4721 9.09657ZM11.2124 7.03125C11.2124 9.02983 9.59221 10.65 7.59363 10.65V11.85C10.255 11.85 12.4124 9.69257 12.4124 7.03125H11.2124ZM7.59363 10.65C5.59505 10.65 3.97488 9.02983 3.97488 7.03125H2.77488C2.77488 9.69257 4.93231 11.85 7.59363 11.85V10.65ZM3.97488 7.03125C3.97488 5.03267 5.59505 3.4125 7.59363 3.4125V2.2125C4.93231 2.2125 2.77488 4.36993 2.77488 7.03125H3.97488ZM7.59363 3.4125C9.59221 3.4125 11.2124 5.03267 11.2124 7.03125H12.4124C12.4124 4.36993 10.255 2.2125 7.59363 2.2125V3.4125ZM2.02068 14.4481C2.70352 13.6343 3.55633 12.9799 4.51916 12.5309L4.012 11.4433C2.89035 11.9664 1.89687 12.7287 1.10139 13.6768L2.02068 14.4481ZM4.51916 12.5309C5.48174 12.082 6.53098 11.85 7.59363 11.85V10.65C6.35629 10.65 5.13389 10.9201 4.012 11.4433L4.51916 12.5309ZM7.59363 11.85C8.65631 11.85 9.70598 12.082 10.6685 12.5309L11.1757 11.4433C10.0538 10.9201 8.83093 10.65 7.59363 10.65V11.85ZM10.6685 12.5309C11.6314 12.9799 12.4842 13.6343 13.167 14.4481L14.0863 13.6768C13.2908 12.7287 12.2973 11.9664 11.1757 11.4433L10.6685 12.5309ZM15.9936 9.5625C15.9936 9.85245 15.7586 10.0875 15.4686 10.0875V11.2875C16.4213 11.2875 17.1936 10.5152 17.1936 9.5625H15.9936ZM15.4686 10.0875C15.1787 10.0875 14.9436 9.85245 14.9436 9.5625H13.7436C13.7436 10.5152 14.5159 11.2875 15.4686 11.2875V10.0875ZM14.9436 9.5625C14.9436 9.27255 15.1787 9.0375 15.4686 9.0375V7.8375C14.5159 7.8375 13.7436 8.60981 13.7436 9.5625H14.9436ZM15.4686 9.0375C15.7586 9.0375 15.9936 9.27255 15.9936 9.5625H17.1936C17.1936 8.60981 16.4213 7.8375 15.4686 7.8375V9.0375ZM16.0686 8.4375V7.59375H14.8686V8.4375H16.0686ZM14.7931 8.48155L14.0689 8.05968L13.4648 9.09657L14.1891 9.51845L14.7931 8.48155ZM14.1891 9.60655L13.4648 10.0284L14.0689 11.0653L14.7931 10.6434L14.1891 9.60655ZM14.8686 10.6875V11.5312H16.0686V10.6875H14.8686ZM16.1439 10.6434L16.8681 11.0653L17.4721 10.0284L16.7479 9.60655L16.1439 10.6434ZM16.7479 9.51845L17.4721 9.09657L16.8681 8.05968L16.1439 8.48155L16.7479 9.51845Z" fill="#4E9B6E"/>
</g>
</svg>
